<svg id="Ebene_1" data-name="Ebene 1" xmlns="http://www.w3.org/2000/svg" viewBox="0 0 80.49 76.5"><defs><style>.cls-1{fill:#96c30f;}</style></defs><title>voon_quadrat_ws</title><path class="cls-1" d="M137.06,102.23h11.51V83.1c0-4.23,2.29-8.94,7.66-8.94s7.66,4.71,7.66,8.94v19.12h11.51V83.1c0-10.59-6-20.44-19.18-20.44s-19.18,9.85-19.18,20.44v19.13Z" transform="translate(-96.51 -27.08)"/><path class="cls-1" d="M120.86,62.61A20.49,20.49,0,1,0,141.35,83.1,20.49,20.49,0,0,0,120.86,62.61Zm0,29.29A8.87,8.87,0,1,1,129.72,83,8.87,8.87,0,0,1,120.85,91.91Z" transform="translate(-96.51 -27.08)"/><path class="cls-1" d="M156.51,27.08A20.49,20.49,0,1,0,177,47.57,20.49,20.49,0,0,0,156.51,27.08Zm0,29.3a8.87,8.87,0,1,1,8.87-8.87A8.87,8.87,0,0,1,156.5,56.38Z" transform="translate(-96.51 -27.08)"/><polygon class="cls-1" points="0 1.26 12.63 1.26 24.35 20.69 36.08 1.26 48.71 1.26 24.36 41 0 1.26"/></svg>