<?xml version="1.0" encoding="utf-8"?>
<!-- Generator: Adobe Illustrator 25.1.0, SVG Export Plug-In . SVG Version: 6.00 Build 0)  -->
<svg version="1.1" id="Ebene_1" xmlns="http://www.w3.org/2000/svg" xmlns:xlink="http://www.w3.org/1999/xlink" x="0px" y="0px"
	 viewBox="0 0 354 283" style="enable-background:new 0 0 354 283;" xml:space="preserve">
<style type="text/css">
	.st0{opacity:0.7;fill:#96C30F;}
	.st1{fill:#FFFFFF;}
</style>
<polygon class="st0" points="129.8,30.9 129.8,249.2 76.4,249.2 76.4,117.4 47.5,132.6 16.8,88.4 "/>
<path class="st0" d="M209.6,30.9C147,30.9,96.2,81.7,96.2,144.4c0,62.6,50.8,113.4,113.4,113.4c62.6,0,113.4-50.8,113.4-113.4
	C323,81.7,272.2,30.9,209.6,30.9z"/>
<g>
	<path class="st1" d="M210.4,209.9l20.5,0l0-34c0-7.5,4.1-15.9,13.6-15.9c9.6,0,13.6,8.4,13.6,15.9l0,34l20.5,0v-34
		c0-18.8-10.7-36.4-34.1-36.4c-23.4,0-34.1,17.5-34.1,36.4L210.4,209.9z"/>
	<path class="st1" d="M181.3,139.5c-20.1,0-36.4,16.3-36.4,36.4c0,20.1,16.3,36.4,36.4,36.4c20.1,0,36.4-16.3,36.4-36.4
		C217.8,155.8,201.5,139.5,181.3,139.5z M181.3,191.6c-8.7,0-15.8-7.1-15.8-15.8s7.1-15.8,15.8-15.8c8.7,0,15.8,7.1,15.8,15.8
		S190,191.6,181.3,191.6z"/>
	<path class="st1" d="M244.6,76.3c-20.1,0-36.4,16.3-36.4,36.4c0,20.1,16.3,36.4,36.4,36.4c20.1,0,36.4-16.3,36.4-36.4
		C281,92.6,264.7,76.3,244.6,76.3z M244.6,128.4c-8.7,0-15.8-7.1-15.8-15.8c0-8.7,7.1-15.8,15.8-15.8c8.7,0,15.8,7.1,15.8,15.8
		C260.4,121.4,253.3,128.4,244.6,128.4z"/>
	<polygon class="st1" points="138,78.5 160.5,78.5 181.3,113.1 202.2,78.5 224.7,78.5 181.3,149.2 	"/>
</g>
</svg>
